{"title":"Johnny English Reborn 2011 720p BRRip AC3 Stang91 LKRG","uid":6948449,"size":982086718,"categoryP":"video","categoryS":"hd___movies","magnet":"?xt=urn:btih:acfb89c167744dd28ac8f80e15536223c6faf3cc&amp;dn=Johnny+English+Reborn+2011+720p+BRRip+AC3+Stang91+LKRG&amp;tr=udp%3A%2F%2Ftracker.openbittorrent.com%3A80&amp;tr=udp%3A%2F%2Fopen.demonii.com%3A1337&amp;tr=udp%3A%2F%2Ftracker.coppersurfer.tk%3A6969&amp;tr=udp%3A%2F%2Fexodus.desync.com%3A6969","seeders":0,"leechers":0,"uploader":".BONE.","files":2,"time":1326314462,"description":"Encoded By .......: Stang91\nRuntime ..........: 1h 41mn\nFile Size ........: 937 MB\nResolution .......: 1280x528 &lt;a href=&quot;\nhttp://www.imdb.com/title/tt1634122/&quot; rel=&quot;nofollow&quot; target=&quot;_NEW&quot;&gt;\nhttp://www.imdb.com/title/tt1634122/&lt;/a&gt;\nSource ...........: BluRay HAiDEAF Thanks\nGenre ............: Adventure/Comedy/Thriller\nLanguage .........: English\nSubtitles ........: yes\nVideo\nID : 0\nFormat : MPEG-4 Visual\nFormat profile : Advanced Simple@L5\nFormat settings, BVOP : Yes\nFormat settings, QPel : No\nFormat settings, GMC : No warppoints\nFormat settings, Matrix : Default (H.263)\nMuxing mode : Packed bitstream\nCodec ID : XVID\nCodec ID/Hint : XviD\nDuration : 1h 41mn\nBit rate : 834 Kbps\nWidth : 1 280 pixels\nHeight : 528 pixels\nDisplay aspect ratio : 2.40:1\nFrame rate : 23.976 fps\nColor space : YUV\nChroma subsampling : 4:2:0\nBit depth : 8 bits\nScan type : Progressive\nCompression mode : Lossy\nBits/(Pixel*Frame) : 0.051\nStream size : 605 MiB (65%)\nWriting library : XviD 64\nAudio\nID : 1\nFormat : AC-3\nFormat/Info : Audio Coding 3\nMode extension : CM (complete main)\nCodec ID : 2000\nDuration : 1h 41mn\nBit rate mode : Constant\nBit rate : 448 Kbps\nChannel(s) : 6 channels\nChannel positions : Front: L C R, Side: L R, LFE\nSampling rate : 48.0 KHz\nBit depth : 16 bits\nCompression mode : Lossy\nStream size : 325 MiB (35%)\nAlignment : Split accross interleaves\nInterleave, duration : 42 ms (1.00 video frame)\nInterleave, preload duration : 500 ms","torrent":{"xt":"urn:btih:acfb89c167744dd28ac8f80e15536223c6faf3cc","amp;dn":"Johnny+English+Reborn+2011+720p+BRRip+AC3+Stang91+LKRG","amp;tr":["udp%3A%2F%2Ftracker.openbittorrent.com%3A80","udp%3A%2F%2Fopen.demonii.com%3A1337","udp%3A%2F%2Ftracker.coppersurfer.tk%3A6969","udp%3A%2F%2Fexodus.desync.com%3A6969"],"infoHash":"acfb89c167744dd28ac8f80e15536223c6faf3cc","infoHashBuffer":{"type":"Buffer","data":[172,251,137,193,103,116,77,210,138,200,248,14,21,83,98,35,198,250,243,204]},"announce":[],"urlList":[]}}